<svg width="20" height="20" viewBox="0 0 20 20" fill="none" xmlns="http://www.w3.org/2000/svg">
  <g clip-path="url(#clip0)">
    <path d="M17.3033 0H2.69358C1.20518 0 -0.00146484 1.20659 -0.00146484 2.69504V17.3049C-0.00146484 18.7933 1.20513 19.9999 2.69358 19.9999H9.89902L9.9113 12.853H8.05454C7.81325 12.853 7.6174 12.6579 7.61647 12.4166L7.60756 10.1129C7.60664 9.87025 7.80307 9.67308 8.04569 9.67308H9.89907V7.44709C9.89907 4.86384 11.4768 3.45724 13.7812 3.45724H15.6721C15.9141 3.45724 16.1103 3.65339 16.1103 3.89537V5.83789C16.1103 6.07978 15.9142 6.27587 15.6724 6.27602L14.5119 6.27655C13.2587 6.27655 13.016 6.87207 13.016 7.74602V9.67313H15.7698C16.0322 9.67313 16.2358 9.90225 16.2048 10.1628L15.9318 12.4666C15.9057 12.687 15.7187 12.8531 15.4967 12.8531H13.0283L13.016 20H17.3034C18.7918 20 19.9984 18.7934 19.9984 17.305V2.69504C19.9983 1.20659 18.7917 0 17.3033 0Z" fill="white"/>
  </g>
  <defs>
    <clipPath id="clip0">
      <rect width="20" height="20" fill="white"/>
    </clipPath>
  </defs>
</svg>
