<svg width="21" height="20" viewBox="0 0 21 20" fill="none" xmlns="http://www.w3.org/2000/svg">
  <g clip-path="url(#clip0)">
    <path d="M14.0117 0H6.51172C3.06047 0 0.261719 2.79875 0.261719 6.25V13.75C0.261719 17.2013 3.06047 20 6.51172 20H14.0117C17.463 20 20.2617 17.2013 20.2617 13.75V6.25C20.2617 2.79875 17.463 0 14.0117 0ZM18.3867 13.75C18.3867 16.1625 16.4242 18.125 14.0117 18.125H6.51172C4.09922 18.125 2.13672 16.1625 2.13672 13.75V6.25C2.13672 3.8375 4.09922 1.875 6.51172 1.875H14.0117C16.4242 1.875 18.3867 3.8375 18.3867 6.25V13.75Z" fill="white"/>
    <path d="M10.2617 5C7.50047 5 5.26172 7.23875 5.26172 10C5.26172 12.7613 7.50047 15 10.2617 15C13.023 15 15.2617 12.7613 15.2617 10C15.2617 7.23875 13.023 5 10.2617 5ZM10.2617 13.125C8.53922 13.125 7.13672 11.7225 7.13672 10C7.13672 8.27625 8.53922 6.875 10.2617 6.875C11.9842 6.875 13.3867 8.27625 13.3867 10C13.3867 11.7225 11.9842 13.125 10.2617 13.125Z" fill="white"/>
    <path d="M15.6372 5.29197C16.0052 5.29197 16.3034 4.99368 16.3034 4.62572C16.3034 4.25776 16.0052 3.95947 15.6372 3.95947C15.2692 3.95947 14.9709 4.25776 14.9709 4.62572C14.9709 4.99368 15.2692 5.29197 15.6372 5.29197Z" fill="white"/>
  </g>
  <defs>
    <clipPath id="clip0">
      <rect x="0.261719" width="20" height="20" fill="white"/>
    </clipPath>
  </defs>
</svg>
