<svg width="134" height="52" viewBox="0 0 134 52" fill="none" xmlns="http://www.w3.org/2000/svg">
<path fill-rule="evenodd" clip-rule="evenodd" d="M13.916 0.0434875L0.0429688 25.9844L13.916 51.9252H17.8812L31.7543 25.9844L22.8351 9.30696L20.8525 13.0139L27.7917 25.9844L15.8986 48.2183L4.00558 25.9844L17.8812 0.0434875H13.916ZM21.8438 0.0434875L7.97079 25.9844L16.8899 42.6617L18.8699 38.9548L11.9334 25.9844L23.8264 3.75044L35.7169 25.9844L21.8438 51.9252H25.8064L39.6821 25.9844L25.8064 0.0434875H21.8438ZM56.203 15.4478H52.8534V18.2835H56.203C57.2569 18.2835 57.8256 17.6835 57.8256 16.867C57.8256 16.0504 57.2569 15.4478 56.203 15.4478ZM60.9325 23.6757H57.9795L56.1899 20.3731H52.8534V23.6757H50.1638V13.3583H56.5656C59.1717 13.3583 60.5778 14.8478 60.5778 16.8644C60.5778 18.2157 59.9464 19.3296 58.7464 19.9191L60.9325 23.6757ZM101.469 13.3609V19.4365C101.469 22.5409 103.757 23.8374 106.791 23.8374C109.825 23.8374 112.113 22.5409 112.113 19.4365V13.3609H109.405V19.4365C109.405 20.4826 109.019 21.7165 106.791 21.7165C104.563 21.7165 104.177 20.4826 104.177 19.4365V13.3609H101.469ZM66.1943 21.5757H72.4708V23.6757H63.5099V13.3609H72.3012V15.4609H66.1943V17.4722H71.7743V19.4522H66.1943V21.5757ZM123.677 21.5757H117.831V13.3609H115.149V23.6757H123.677V21.5757ZM94.0786 15.4844L92.3334 19.6609H95.8238L94.0786 15.4844ZM100.264 23.6757H97.5064L96.7056 21.7609H91.4569L90.656 23.6757H87.896L92.3386 13.3583H95.8212L100.264 23.6757ZM122.532 13.3609V15.4583H126.51V23.6757H129.194V15.4583H133.175V13.3609H122.532ZM86.1065 13.3609V23.6757H83.7873L77.683 16.9009V23.6757H75.2725V13.3609H77.5578L83.7064 20.1357V13.3609H86.1065ZM50.1638 30.1948H54.1421V38.3678H56.8264V30.1948H60.8073V28.1078H50.1638V30.1948ZM80.8838 36.4165C83.1117 36.4165 83.4977 35.1904 83.4977 34.1496V28.1104H86.2056V34.1496C86.2056 37.2383 83.9178 38.527 80.8838 38.527C77.8499 38.527 75.5621 37.2383 75.5621 34.1496V28.1104H78.2699V34.1496C78.2699 35.1904 78.656 36.4165 80.8838 36.4165ZM68.9725 33.0044H65.623V30.1844H68.9725C70.0265 30.1844 70.5951 30.7844 70.5951 31.5957C70.5951 32.407 70.0265 33.0044 68.9725 33.0044ZM73.3473 31.5931C73.3473 29.587 71.9412 28.1052 69.3351 28.1052H62.9334V38.3652H65.623V35.0809H68.9595L70.7491 38.3652H73.7047L71.5186 34.6296C72.7186 34.0426 73.3499 32.9365 73.3499 31.5931H73.3473ZM105.93 32.24L109.705 28.1861H112.997L108.286 33.2861L112.997 38.3861H109.705L105.927 34.3296H104.816V38.3678H102.134V28.1078H104.816V32.24H105.93ZM122.652 33.0226C121.809 32.6183 120.116 32.3444 118.971 32.1644L118.968 32.1639C117.997 32.0126 116.539 31.7853 116.539 31.0217C116.539 30.4061 117.218 30.0539 118.817 30.0539C120.416 30.0539 121.139 30.62 121.139 31.2148H123.753C123.753 29.4278 122.065 27.9435 118.778 27.9435C115.491 27.9435 113.79 29.5061 113.79 31.2461C113.79 32.06 114.202 32.6209 114.836 33.0878C115.577 33.6331 116.79 33.8939 118.866 34.1809C120.677 34.4313 121.459 34.6374 121.459 35.407C121.459 35.9209 120.867 36.427 119.153 36.427C117.439 36.427 116.607 35.8974 116.607 35.1409H113.769C113.769 36.8939 115.266 38.5244 119.114 38.5244C122.73 38.5244 124.089 37.027 124.089 35.2244C124.089 34.1991 123.531 33.4426 122.652 33.02V33.0226ZM96.1604 30.7896C95.636 30.4061 94.9969 30.1791 94.2299 30.1791C93.3038 30.1791 92.5525 30.4583 91.9786 31.0191C91.4047 31.5774 91.1178 32.3157 91.1178 33.2339C91.1178 34.1496 91.4047 34.8878 91.9786 35.4487C92.5525 36.007 93.3038 36.2887 94.2299 36.2887C94.9943 36.2887 95.636 36.0617 96.1604 35.6783C96.6378 35.3287 96.9743 34.8852 97.1595 34.2774H99.7864C99.6795 35.2687 99.0299 36.5235 98.0282 37.3113C96.9612 38.1513 95.7247 38.5244 94.2247 38.5244C92.563 38.5244 91.1777 38.0183 90.0691 37.0087C88.9604 35.9991 88.4073 34.7391 88.4073 33.2339C88.4073 31.7287 88.9604 30.4687 90.0691 29.4591C91.1777 28.4496 92.563 27.9435 94.2247 27.9435C95.7247 27.9435 96.9612 28.3165 98.0282 29.1565C99.0299 29.9417 99.6795 31.1991 99.7864 32.1904H97.1595C96.9743 31.5826 96.6378 31.1365 96.1604 30.7896Z" fill="white"/>
</svg>
