<svg width="20" height="20" viewBox="0 0 20 20" fill="none" xmlns="http://www.w3.org/2000/svg">
  <path d="M17.5 20H2.5C1.12 20 0 18.88 0 17.5V2.5C0 1.12 1.12 0 2.5 0H17.5C18.88 0 20 1.12 20 2.5V17.5C20 18.88 18.88 20 17.5 20ZM7.68 15.08C12.395 15.08 14.975 11.17 14.975 7.785C14.975 7.675 14.975 7.565 14.97 7.455C15.47 7.095 15.905 6.64 16.25 6.125C15.79 6.33 15.295 6.465 14.775 6.53C15.305 6.215 15.71 5.71 15.905 5.11C15.41 5.405 14.86 5.615 14.275 5.73C13.805 5.23 13.14 4.92 12.405 4.92C10.99 4.92 9.84 6.07 9.84 7.485C9.84 7.685 9.865 7.88 9.905 8.07C7.775 7.965 5.885 6.94 4.62 5.39C4.4 5.77 4.275 6.21 4.275 6.68C4.275 7.57 4.73 8.355 5.415 8.815C4.995 8.8 4.6 8.685 4.255 8.495C4.255 8.505 4.255 8.515 4.255 8.53C4.255 9.77 5.14 10.81 6.31 11.045C6.095 11.105 5.87 11.135 5.635 11.135C5.47 11.135 5.31 11.12 5.155 11.09C5.48 12.11 6.43 12.85 7.55 12.87C6.67 13.56 5.565 13.97 4.365 13.97C4.16 13.97 3.955 13.96 3.755 13.935C4.885 14.655 6.235 15.08 7.68 15.08Z" fill="white"/>
</svg>
